<svg width="123" height="35" viewBox="0 0 123 35" fill="none" xmlns="http://www.w3.org/2000/svg">
<path d="M5.42334 13.675V19.775H14.1983V21.925H5.42334V29H2.92334V11.5H15.2733V13.675H5.42334ZM18.1983 15.75H20.5983V29H18.1983V15.75ZM19.3983 13.2C18.9317 13.2 18.54 13.05 18.2233 12.75C17.9233 12.45 17.7733 12.0833 17.7733 11.65C17.7733 11.2167 17.9233 10.85 18.2233 10.55C18.54 10.2333 18.9317 10.075 19.3983 10.075C19.865 10.075 20.2483 10.225 20.5483 10.525C20.865 10.8083 21.0233 11.1667 21.0233 11.6C21.0233 12.05 20.865 12.4333 20.5483 12.75C20.2483 13.05 19.865 13.2 19.3983 13.2ZM32.2558 15.625C33.9391 15.625 35.2724 16.1167 36.2558 17.1C37.2558 18.0667 37.7558 19.4917 37.7558 21.375V29H35.3558V21.65C35.3558 20.3667 35.0474 19.4 34.4308 18.75C33.8141 18.1 32.9308 17.775 31.7808 17.775C30.4808 17.775 29.4558 18.1583 28.7058 18.925C27.9558 19.675 27.5808 20.7583 27.5808 22.175V29H25.1808V15.75H27.4808V17.75C27.9641 17.0667 28.6141 16.5417 29.4308 16.175C30.2641 15.8083 31.2058 15.625 32.2558 15.625ZM47.0224 15.625C48.8557 15.625 50.2557 16.075 51.2224 16.975C52.2057 17.875 52.6974 19.2167 52.6974 21V29H50.4224V27.25C50.0224 27.8667 49.4474 28.3417 48.6974 28.675C47.964 28.9917 47.089 29.15 46.0724 29.15C44.589 29.15 43.3974 28.7917 42.4974 28.075C41.614 27.3583 41.1724 26.4167 41.1724 25.25C41.1724 24.0833 41.5974 23.15 42.4474 22.45C43.2974 21.7333 44.6474 21.375 46.4974 21.375H50.2974V20.9C50.2974 19.8667 49.9974 19.075 49.3974 18.525C48.7974 17.975 47.914 17.7 46.7474 17.7C45.964 17.7 45.1974 17.8333 44.4474 18.1C43.6974 18.35 43.064 18.6917 42.5474 19.125L41.5474 17.325C42.2307 16.775 43.0474 16.3583 43.9974 16.075C44.9474 15.775 45.9557 15.625 47.0224 15.625ZM46.4724 27.3C47.389 27.3 48.1807 27.1 48.8474 26.7C49.514 26.2833 49.9974 25.7 50.2974 24.95V23.1H46.5974C44.564 23.1 43.5474 23.7833 43.5474 25.15C43.5474 25.8167 43.8057 26.3417 44.3224 26.725C44.839 27.1083 45.5557 27.3 46.4724 27.3ZM64.2138 15.625C65.8971 15.625 67.2304 16.1167 68.2138 17.1C69.2138 18.0667 69.7138 19.4917 69.7138 21.375V29H67.3138V21.65C67.3138 20.3667 67.0054 19.4 66.3888 18.75C65.7721 18.1 64.8888 17.775 63.7388 17.775C62.4388 17.775 61.4138 18.1583 60.6638 18.925C59.9138 19.675 59.5388 20.7583 59.5388 22.175V29H57.1388V15.75H59.4388V17.75C59.9221 17.0667 60.5721 16.5417 61.3888 16.175C62.2221 15.8083 63.1638 15.625 64.2138 15.625ZM80.0036 29.15C78.6536 29.15 77.4453 28.8583 76.3786 28.275C75.3286 27.6917 74.5036 26.8917 73.9036 25.875C73.3036 24.8417 73.0036 23.675 73.0036 22.375C73.0036 21.075 73.3036 19.9167 73.9036 18.9C74.5036 17.8667 75.3286 17.0667 76.3786 16.5C77.4453 15.9167 78.6536 15.625 80.0036 15.625C81.2036 15.625 82.2703 15.8667 83.2036 16.35C84.1536 16.8333 84.8869 17.5333 85.4036 18.45L83.5786 19.625C83.1619 18.9917 82.6453 18.5167 82.0286 18.2C81.4119 17.8833 80.7286 17.725 79.9786 17.725C79.1119 17.725 78.3286 17.9167 77.6286 18.3C76.9453 18.6833 76.4036 19.2333 76.0036 19.95C75.6203 20.65 75.4286 21.4583 75.4286 22.375C75.4286 23.3083 75.6203 24.1333 76.0036 24.85C76.4036 25.55 76.9453 26.0917 77.6286 26.475C78.3286 26.8583 79.1119 27.05 79.9786 27.05C80.7286 27.05 81.4119 26.8917 82.0286 26.575C82.6453 26.2583 83.1619 25.7833 83.5786 25.15L85.4036 26.3C84.8869 27.2167 84.1536 27.925 83.2036 28.425C82.2703 28.9083 81.2036 29.15 80.0036 29.15ZM78.8286 34.6C77.9619 34.6 77.2203 34.4167 76.6036 34.05L77.1286 32.825C77.6286 33.1083 78.1953 33.25 78.8286 33.25C79.7619 33.25 80.2286 32.9167 80.2286 32.25C80.2286 31.95 80.1119 31.7083 79.8786 31.525C79.6453 31.3583 79.2869 31.275 78.8036 31.275H78.1286L78.7536 28.825H80.1286L79.7536 30.25C80.4536 30.3167 80.9869 30.5333 81.3536 30.9C81.7369 31.2833 81.9286 31.7583 81.9286 32.325C81.9286 33.025 81.6453 33.575 81.0786 33.975C80.5119 34.3917 79.7619 34.6 78.8286 34.6ZM93.3358 15.625C95.1692 15.625 96.5692 16.075 97.5358 16.975C98.5192 17.875 99.0108 19.2167 99.0108 21V29H96.7358V27.25C96.3358 27.8667 95.7608 28.3417 95.0108 28.675C94.2775 28.9917 93.4025 29.15 92.3858 29.15C90.9025 29.15 89.7108 28.7917 88.8108 28.075C87.9275 27.3583 87.4858 26.4167 87.4858 25.25C87.4858 24.0833 87.9108 23.15 88.7608 22.45C89.6108 21.7333 90.9608 21.375 92.8108 21.375H96.6108V20.9C96.6108 19.8667 96.3108 19.075 95.7108 18.525C95.1108 17.975 94.2275 17.7 93.0608 17.7C92.2775 17.7 91.5108 17.8333 90.7608 18.1C90.0108 18.35 89.3775 18.6917 88.8608 19.125L87.8608 17.325C88.5442 16.775 89.3608 16.3583 90.3108 16.075C91.2608 15.775 92.2692 15.625 93.3358 15.625ZM92.7858 27.3C93.7025 27.3 94.4942 27.1 95.1608 26.7C95.8275 26.2833 96.3108 25.7 96.6108 24.95V23.1H92.9108C90.8775 23.1 89.8608 23.7833 89.8608 25.15C89.8608 25.8167 90.1192 26.3417 90.6358 26.725C91.1525 27.1083 91.8692 27.3 92.7858 27.3ZM107.252 29.15C106.169 29.15 105.127 29.0083 104.127 28.725C103.127 28.425 102.344 28.05 101.777 27.6L102.777 25.7C103.361 26.1167 104.069 26.45 104.902 26.7C105.736 26.95 106.577 27.075 107.427 27.075C109.527 27.075 110.577 26.475 110.577 25.275C110.577 24.875 110.436 24.5583 110.152 24.325C109.869 24.0917 109.511 23.925 109.077 23.825C108.661 23.7083 108.061 23.5833 107.277 23.45C106.211 23.2833 105.336 23.0917 104.652 22.875C103.986 22.6583 103.411 22.2917 102.927 21.775C102.444 21.2583 102.202 20.5333 102.202 19.6C102.202 18.4 102.702 17.4417 103.702 16.725C104.702 15.9917 106.044 15.625 107.727 15.625C108.611 15.625 109.494 15.7333 110.377 15.95C111.261 16.1667 111.986 16.4583 112.552 16.825L111.527 18.725C110.444 18.025 109.169 17.675 107.702 17.675C106.686 17.675 105.911 17.8417 105.377 18.175C104.844 18.5083 104.577 18.95 104.577 19.5C104.577 19.9333 104.727 20.275 105.027 20.525C105.327 20.775 105.694 20.9583 106.127 21.075C106.577 21.1917 107.202 21.325 108.002 21.475C109.069 21.6583 109.927 21.8583 110.577 22.075C111.244 22.275 111.811 22.625 112.277 23.125C112.744 23.625 112.977 24.325 112.977 25.225C112.977 26.425 112.461 27.3833 111.427 28.1C110.411 28.8 109.019 29.15 107.252 29.15Z" fill="white"/>
<line x1="64" y1="10.5" x2="114" y2="10.5" stroke="white"/>
<line x1="69" y1="5.5" x2="119" y2="5.5" stroke="white" stroke-opacity="0.8"/>
<line x1="73" y1="0.5" x2="123" y2="0.5" stroke="white" stroke-opacity="0.6"/>
</svg>